<svg xmlns="http://www.w3.org/2000/svg" xmlns:xlink="http://www.w3.org/1999/xlink" id="dollar-symbol" width="32.556" height="62.831" viewBox="0 0 32.556 62.831"><defs><linearGradient id="linear-gradient" x1="-8.704" y1="-3.54" x2="4.528" y2="0.264" gradientUnits="objectBoundingBox"><stop offset="0" stop-color="#11998e"></stop><stop offset="1" stop-color="#38ef7d"></stop></linearGradient></defs><path id="Path_96" data-name="Path 96" d="M141.668,28.541a75.654,75.654,0,0,0-7.682-3.478,17.247,17.247,0,0,1-4.217-2.362c-2.5-2-2.024-5.243.908-6.527a7.4,7.4,0,0,1,2.582-.532,19.6,19.6,0,0,1,9.707,1.921c1.531.74,2.037.506,2.556-1.09.545-1.687,1-3.4,1.505-5.1A1.781,1.781,0,0,0,145.872,9a24.675,24.675,0,0,0-6.125-1.83c-2.777-.428-2.777-.441-2.79-3.231C136.945.005,136.945.005,133,.005c-.571,0-1.142-.013-1.713,0-1.843.052-2.154.376-2.206,2.232-.026.831,0,1.661-.013,2.5-.013,2.466-.026,2.427-2.388,3.283-5.71,2.076-9.239,5.969-9.616,12.2-.337,5.515,2.543,9.239,7.072,11.951,2.79,1.674,5.878,2.66,8.837,3.971a13.127,13.127,0,0,1,3.218,1.895,4.412,4.412,0,0,1-1.051,7.734,10.584,10.584,0,0,1-5.671.74,25.311,25.311,0,0,1-8.642-2.582c-1.6-.83-2.063-.61-2.608,1.116-.467,1.492-.882,3-1.3,4.5-.558,2.024-.35,2.5,1.583,3.452a27.6,27.6,0,0,0,7.786,2.232c2.1.337,2.167.428,2.193,2.608.013.986.013,1.985.026,2.972a1.765,1.765,0,0,0,1.895,2c1.453.026,2.92.026,4.373-.013a1.664,1.664,0,0,0,1.8-1.882c0-1.35.065-2.712.013-4.062a2.145,2.145,0,0,1,1.856-2.44,14.665,14.665,0,0,0,7.643-4.905C151.647,42.763,149.532,32.888,141.668,28.541Z" transform="translate(-116.652 0)" fill="url(#linear-gradient)"></path></svg>