<svg xmlns="http://www.w3.org/2000/svg" xmlns:xlink="http://www.w3.org/1999/xlink" width="78.933" height="54.267" viewBox="0 0 78.933 54.267"><defs><linearGradient id="linear-gradient" x1="-8.704" y1="-3.54" x2="4.528" y2="0.264" gradientUnits="objectBoundingBox"><stop offset="0" stop-color="#11998e"></stop><stop offset="1" stop-color="#38ef7d"></stop></linearGradient></defs><g id="email" transform="translate(0 -80)"><g id="Group_128" data-name="Group 128" transform="translate(52.323 90.005)"><g id="Group_127" data-name="Group 127"><path id="Path_44" data-name="Path 44" d="M339.392,162.429,366,179.252V144.9Z" transform="translate(-339.392 -144.896)" fill="url(#linear-gradient)"></path></g></g><g id="Group_130" data-name="Group 130" transform="translate(0 90.005)"><g id="Group_129" data-name="Group 129"><path id="Path_45" data-name="Path 45" d="M0,144.9v34.356l26.61-16.823Z" transform="translate(0 -144.896)" fill="url(#linear-gradient)"></path></g></g><g id="Group_132" data-name="Group 132" transform="translate(0.148 80)"><g id="Group_131" data-name="Group 131"><path id="Path_46" data-name="Path 46" d="M74.812,80H5.745A4.872,4.872,0,0,0,.96,84.2l39.319,25.9L79.6,84.2A4.872,4.872,0,0,0,74.812,80Z" transform="translate(-0.96 -80)" fill="url(#linear-gradient)"></path></g></g><g id="Group_134" data-name="Group 134" transform="translate(0.158 110.513)"><g id="Group_133" data-name="Group 133"><path id="Path_47" data-name="Path 47" d="M48.67,277.925l-6.981,4.6a2.478,2.478,0,0,1-2.713,0L32,277.92,1.024,297.51A4.864,4.864,0,0,0,5.8,301.674H74.866a4.864,4.864,0,0,0,4.775-4.164Z" transform="translate(-1.024 -277.92)" fill="url(#linear-gradient)"></path></g></g></g></svg>