<svg width="185" height="111" viewBox="0 0 185 111" fill="none" xmlns="http://www.w3.org/2000/svg">
<g clip-path="url(#clip0_2991_683)">
<mask id="mask0_2991_683" style="mask-type:luminance" maskUnits="userSpaceOnUse" x="0" y="0" width="185" height="111">
<path d="M165 0H20C8.9543 0 0 8.9543 0 20V91C0 102.046 8.9543 111 20 111H165C176.046 111 185 102.046 185 91V20C185 8.9543 176.046 0 165 0Z" fill="white"/>
</mask>
<g mask="url(#mask0_2991_683)">
<path d="M0 36.0458C0 19.0753 0 10.59 5.27208 5.31798C10.5442 0.0458984 19.0294 0.0458984 36 0.0458984H149.617C166.588 0.0458984 175.073 0.0458984 180.345 5.31798C185.617 10.59 185.617 19.0753 185.617 36.0459V74.9999C185.617 91.9705 185.617 100.456 180.345 105.728C175.073 111 166.588 111 149.617 111H36C19.0294 111 10.5442 111 5.27208 105.728C0 100.456 0 91.9705 0 74.9999V36.0458Z" fill="#02131B"/>
<path d="M18.1372 74.6685H16.6492V85.8685H22.9692V84.4605H18.1372V74.6685ZM25.0217 76.4125C25.5337 76.4125 25.9497 75.9965 25.9497 75.4845C25.9497 74.9725 25.5337 74.5405 25.0217 74.5405C24.4937 74.5405 24.0777 74.9725 24.0777 75.4845C24.0777 75.9965 24.4937 76.4125 25.0217 76.4125ZM25.7097 85.8685V77.8685H24.3177V85.8685H25.7097ZM31.8173 77.6605C30.6493 77.6605 29.7853 78.1085 29.2253 79.0205V77.8685H27.8333V85.8685H29.2253V81.6285C29.2253 79.8365 30.1533 78.9885 31.5453 78.9885C32.7773 78.9885 33.5293 79.7405 33.5293 81.0365V85.8685H34.9213V80.9565C34.9213 78.9245 33.6893 77.6605 31.8173 77.6605ZM39.6806 81.7405L43.5046 77.8685H41.7126L38.2566 81.4045V74.6685H36.8646V85.8685H38.2566V82.0765L41.9046 85.8685H43.6326L39.6806 81.7405ZM51.8727 82.5085C51.9047 82.3005 51.9207 82.0925 51.9207 81.8845C51.9207 80.7165 51.5527 79.7245 50.8007 78.9085C50.0647 78.0765 49.1047 77.6605 47.9367 77.6605C46.7047 77.6605 45.6967 78.0605 44.9127 78.8605C44.1287 79.6605 43.7447 80.6685 43.7447 81.8685C43.7447 83.0845 44.1447 84.0925 44.9287 84.8925C45.7287 85.6765 46.7687 86.0765 48.0327 86.0765C49.6007 86.0765 50.7687 85.4685 51.5527 84.2685L50.3687 83.5965C49.8887 84.3805 49.1207 84.7645 48.0647 84.7645C46.5447 84.7645 45.4407 83.9325 45.1687 82.5085H51.8727ZM47.9367 78.9725C49.2167 78.9725 50.2727 79.7725 50.5127 81.2925H45.1687C45.4087 79.8845 46.4487 78.9725 47.9367 78.9725ZM60.1292 79.2445C59.4412 78.1885 58.4332 77.6605 57.1052 77.6605C55.9852 77.6605 55.0252 78.0765 54.2412 78.8925C53.4572 79.7085 53.0572 80.7005 53.0572 81.8685C53.0572 83.0365 53.4572 84.0445 54.2412 84.8605C55.0252 85.6765 55.9852 86.0765 57.1052 86.0765C58.4332 86.0765 59.4412 85.5485 60.1292 84.4925V85.8685H61.5212V74.6685H60.1292V79.2445ZM57.2812 84.7325C56.4812 84.7325 55.8092 84.4605 55.2652 83.9165C54.7212 83.3565 54.4492 82.6845 54.4492 81.8685C54.4492 81.0525 54.7212 80.3805 55.2652 79.8365C55.8092 79.2765 56.4812 79.0045 57.2812 79.0045C58.0972 79.0045 58.7692 79.2765 59.3132 79.8365C59.8572 80.3805 60.1292 81.0525 60.1292 81.8685C60.1292 82.6845 59.8572 83.3565 59.3132 83.9165C58.7692 84.4605 58.0972 84.7325 57.2812 84.7325ZM64.3342 76.4125C64.8462 76.4125 65.2622 75.9965 65.2622 75.4845C65.2622 74.9725 64.8462 74.5405 64.3342 74.5405C63.8062 74.5405 63.3902 74.9725 63.3902 75.4845C63.3902 75.9965 63.8062 76.4125 64.3342 76.4125ZM65.0222 85.8685V77.8685H63.6302V85.8685H65.0222ZM71.1298 77.6605C69.9618 77.6605 69.0978 78.1085 68.5378 79.0205V77.8685H67.1458V85.8685H68.5378V81.6285C68.5378 79.8365 69.4658 78.9885 70.8578 78.9885C72.0898 78.9885 72.8418 79.7405 72.8418 81.0365V85.8685H74.2338V80.9565C74.2338 78.9245 73.0018 77.6605 71.1298 77.6605ZM86.7691 74.6685H80.3211V85.8685H81.8091V81.1165H86.5611V79.7085H81.8091V76.0765H86.7691V74.6685ZM95.1791 84.8605C95.9951 84.0445 96.4111 83.0525 96.4111 81.8685C96.4111 80.6845 95.9951 79.6925 95.1791 78.8765C94.3631 78.0605 93.3551 77.6605 92.1871 77.6605C91.0191 77.6605 90.0111 78.0605 89.1951 78.8765C88.3791 79.6925 87.9791 80.6845 87.9791 81.8685C87.9791 83.0525 88.3791 84.0445 89.1951 84.8605C90.0111 85.6765 91.0191 86.0765 92.1871 86.0765C93.3551 86.0765 94.3631 85.6765 95.1791 84.8605ZM92.1871 84.7165C91.4031 84.7165 90.7311 84.4445 90.1871 83.9005C89.6431 83.3565 89.3711 82.6845 89.3711 81.8685C89.3711 81.0525 89.6431 80.3805 90.1871 79.8365C90.7311 79.2925 91.4031 79.0205 92.1871 79.0205C92.9871 79.0205 93.6591 79.2925 94.2031 79.8365C94.7471 80.3805 95.0191 81.0525 95.0191 81.8685C95.0191 82.6845 94.7471 83.3565 94.2031 83.9005C93.6591 84.4445 92.9871 84.7165 92.1871 84.7165ZM99.4441 85.8685V74.1885H98.0521V85.8685H99.4441ZM102.96 85.8685V74.1885H101.568V85.8685H102.96ZM111.835 84.8605C112.651 84.0445 113.067 83.0525 113.067 81.8685C113.067 80.6845 112.651 79.6925 111.835 78.8765C111.019 78.0605 110.011 77.6605 108.843 77.6605C107.675 77.6605 106.667 78.0605 105.851 78.8765C105.035 79.6925 104.635 80.6845 104.635 81.8685C104.635 83.0525 105.035 84.0445 105.851 84.8605C106.667 85.6765 107.675 86.0765 108.843 86.0765C110.011 86.0765 111.019 85.6765 111.835 84.8605ZM108.843 84.7165C108.059 84.7165 107.387 84.4445 106.843 83.9005C106.299 83.3565 106.027 82.6845 106.027 81.8685C106.027 81.0525 106.299 80.3805 106.843 79.8365C107.387 79.2925 108.059 79.0205 108.843 79.0205C109.643 79.0205 110.315 79.2925 110.859 79.8365C111.403 80.3805 111.675 81.0525 111.675 81.8685C111.675 82.6845 111.403 83.3565 110.859 83.9005C110.315 84.4445 109.643 84.7165 108.843 84.7165ZM122.06 83.9645L120.172 77.8685H118.828L116.94 83.9485L115.18 77.8685H113.724L116.204 85.8685H117.628L119.5 79.9485L121.372 85.8685H122.796L125.276 77.8685H123.82L122.06 83.9645ZM134.076 82.5085C134.108 82.3005 134.124 82.0925 134.124 81.8845C134.124 80.7165 133.756 79.7245 133.004 78.9085C132.268 78.0765 131.308 77.6605 130.14 77.6605C128.908 77.6605 127.9 78.0605 127.116 78.8605C126.332 79.6605 125.948 80.6685 125.948 81.8685C125.948 83.0845 126.348 84.0925 127.132 84.8925C127.932 85.6765 128.972 86.0765 130.236 86.0765C131.804 86.0765 132.972 85.4685 133.756 84.2685L132.572 83.5965C132.092 84.3805 131.324 84.7645 130.268 84.7645C128.748 84.7645 127.644 83.9325 127.372 82.5085H134.076ZM130.14 78.9725C131.42 78.9725 132.476 79.7725 132.716 81.2925H127.372C127.612 79.8845 128.652 78.9725 130.14 78.9725ZM137.116 77.8685H135.724V85.8685H137.116V81.6285C137.116 80.7485 137.356 80.1245 137.852 79.7245C138.348 79.3245 138.924 79.1485 139.612 79.1805V77.7245C138.412 77.7245 137.58 78.2205 137.116 79.2125V77.8685ZM141.877 80.0285C141.877 79.3405 142.517 78.9565 143.301 78.9565C144.149 78.9565 144.725 79.2925 145.013 79.9805L146.181 79.3245C145.669 78.2845 144.597 77.6605 143.301 77.6605C142.485 77.6605 141.813 77.8845 141.269 78.3325C140.741 78.7805 140.469 79.3565 140.469 80.0445C140.469 81.7405 142.101 82.1565 143.365 82.4925C144.245 82.7005 144.949 83.0525 144.949 83.6765C144.949 84.4285 144.277 84.7645 143.365 84.7645C142.389 84.7645 141.637 84.2845 141.381 83.5165L140.181 84.2045C140.645 85.3405 141.813 86.0765 143.365 86.0765C144.245 86.0765 144.949 85.8525 145.509 85.4205C146.069 84.9885 146.357 84.3965 146.357 83.6765C146.373 81.9645 144.709 81.5005 143.461 81.2285C142.581 80.9885 141.877 80.6525 141.877 80.0285Z" fill="white"/>
<path d="M183.814 10.9901C179.628 13.407 174.276 11.9978 171.88 7.84768C169.484 3.69759 170.94 -1.64157 175.126 -4.05846C179.312 -6.47536 184.664 -5.06621 187.06 -0.916116C189.456 3.23397 188 8.57314 183.814 10.9901ZM130.686 41.6634C126.5 44.0803 121.149 42.6711 118.753 38.521C116.357 34.371 117.812 29.0318 121.998 26.6149C126.184 24.198 131.536 25.6071 133.932 29.7572C136.328 33.9073 134.873 39.2465 130.686 41.6634ZM129.064 47.6165L136.653 43.2346C138.74 42.0295 141.108 41.7756 143.264 42.3334C139.985 47.6909 139.302 54.3399 141.784 60.3371L133.957 64.8559C131.858 66.0678 129.192 65.3657 127.99 63.2847L125.818 59.5226C123.422 55.3725 124.877 50.0334 129.064 47.6165ZM159.422 30.0889C152.082 34.327 142.74 31.8671 138.538 24.5898C134.337 17.3124 136.877 7.99206 144.218 3.75394C151.559 -0.484172 160.9 1.97569 165.102 9.25305C169.304 16.5305 166.763 25.8507 159.422 30.0889ZM152.487 39.1093L153.471 38.541C156.616 38.2925 159.763 37.4163 162.68 35.732C165.598 34.0477 167.918 31.7676 169.718 29.161L170.702 28.5927C178.244 24.2382 187.866 26.7717 192.183 34.2489L194.138 37.6348C195.936 40.7503 194.846 44.7501 191.704 46.5644L157.55 66.283C154.407 68.0974 150.398 67.0417 148.6 63.9262L146.645 60.5403C142.328 53.0631 144.945 43.4638 152.487 39.1093ZM178.106 22.2178C178.701 20.0715 180.104 18.1482 182.191 16.9432L189.781 12.5613C193.967 10.1444 199.319 11.5535 201.715 15.7036L203.887 19.4657C205.088 21.5466 204.363 24.2069 202.264 25.4188L194.449 29.9308C190.485 24.7895 184.385 22.0567 178.106 22.2178Z" fill="#068585" fill-opacity="0.1"/>
</g>
<path d="M16.7259 56.3977V52.0384L27.6562 34.8182H31.4148V40.8523H29.1903L22.2997 51.7571V51.9616H37.8324V56.3977H16.7259ZM29.2926 61V55.0682L29.3949 53.1378V34.8182H34.5852V61H29.2926ZM51.7862 61.5753C49.5874 61.5668 47.6953 61.0256 46.1101 59.9517C44.5334 58.8778 43.3189 57.3224 42.4666 55.2855C41.6229 53.2486 41.2053 50.7983 41.2138 47.9347C41.2138 45.0795 41.6357 42.6463 42.4794 40.6349C43.3317 38.6236 44.5462 37.0937 46.1229 36.0455C47.7081 34.9886 49.5959 34.4602 51.7862 34.4602C53.9766 34.4602 55.8601 34.9886 57.4368 36.0455C59.022 37.1023 60.2408 38.6364 61.093 40.6477C61.9453 42.6506 62.3672 45.0795 62.3587 47.9347C62.3587 50.8068 61.9325 53.2614 61.0803 55.2983C60.2365 57.3352 59.0263 58.8906 57.4496 59.9645C55.8729 61.0384 53.9851 61.5753 51.7862 61.5753ZM51.7862 56.9858C53.2862 56.9858 54.4837 56.2315 55.3786 54.723C56.2734 53.2145 56.7166 50.9517 56.7081 47.9347C56.7081 45.9489 56.5036 44.2955 56.0945 42.9744C55.6939 41.6534 55.1229 40.6605 54.3814 39.9957C53.6484 39.331 52.7834 38.9986 51.7862 38.9986C50.2947 38.9986 49.1016 39.7443 48.2067 41.2358C47.3118 42.7273 46.8601 44.9602 46.8516 47.9347C46.8516 49.946 47.0518 51.625 47.4524 52.9716C47.8615 54.3097 48.4368 55.3153 49.1783 55.9886C49.9197 56.6534 50.7891 56.9858 51.7862 56.9858ZM76.5714 61.5753C74.3725 61.5668 72.4805 61.0256 70.8952 59.9517C69.3185 58.8778 68.104 57.3224 67.2518 55.2855C66.408 53.2486 65.9904 50.7983 65.9989 47.9347C65.9989 45.0795 66.4208 42.6463 67.2646 40.6349C68.1168 38.6236 69.3313 37.0937 70.908 36.0455C72.4933 34.9886 74.381 34.4602 76.5714 34.4602C78.7617 34.4602 80.6452 34.9886 82.2219 36.0455C83.8072 37.1023 85.0259 38.6364 85.8782 40.6477C86.7305 42.6506 87.1523 45.0795 87.1438 47.9347C87.1438 50.8068 86.7177 53.2614 85.8654 55.2983C85.0217 57.3352 83.8114 58.8906 82.2347 59.9645C80.658 61.0384 78.7702 61.5753 76.5714 61.5753ZM76.5714 56.9858C78.0714 56.9858 79.2688 56.2315 80.1637 54.723C81.0586 53.2145 81.5018 50.9517 81.4933 47.9347C81.4933 45.9489 81.2887 44.2955 80.8796 42.9744C80.479 41.6534 79.908 40.6605 79.1665 39.9957C78.4336 39.331 77.5685 38.9986 76.5714 38.9986C75.0799 38.9986 73.8867 39.7443 72.9918 41.2358C72.0969 42.7273 71.6452 44.9602 71.6367 47.9347C71.6367 49.946 71.837 51.625 72.2376 52.9716C72.6467 54.3097 73.2219 55.3153 73.9634 55.9886C74.7049 56.6534 75.5742 56.9858 76.5714 56.9858ZM96.0767 55.3494L96.0895 48.8168H96.8821L103.172 41.3636H109.423L100.973 51.233H99.6818L96.0767 55.3494ZM91.142 61V34.8182H96.5881V61H91.142ZM103.415 61L97.6364 52.4474L101.267 48.5994L109.794 61H103.415ZM119.2 59.581V41.4787H123.777V59.581H119.2ZM112.437 52.8182V48.2415H130.539V52.8182H112.437Z" fill="url(#paint0_linear_2991_683)"/>
</g>
<defs>
<linearGradient id="paint0_linear_2991_683" x1="25.5" y1="30" x2="122.247" y2="80.0271" gradientUnits="userSpaceOnUse">
<stop stop-color="#1ACF90"/>
<stop offset="1" stop-color="#07B6A8"/>
</linearGradient>
<clipPath id="clip0_2991_683">
<rect width="185" height="111" fill="white"/>
</clipPath>
</defs>
</svg>
