<svg width="185" height="111" viewBox="0 0 185 111" fill="none" xmlns="http://www.w3.org/2000/svg">
<g clip-path="url(#clip0)">
<path d="M0 36.0459C0 19.0753 0 10.5901 5.27208 5.31798C10.5442 0.0458984 19.0294 0.0458984 36 0.0458984H149.617C166.588 0.0458984 175.073 0.0458984 180.345 5.31798C185.617 10.5901 185.617 19.0753 185.617 36.0459V75C185.617 91.9705 185.617 100.456 180.345 105.728C175.073 111 166.588 111 149.617 111H36C19.0294 111 10.5442 111 5.27208 105.728C0 100.456 0 91.9705 0 75V36.0459Z" fill="#02131B"/>
<path d="M172.916 -15.9327L126.591 10.8131C125.569 11.4133 124.826 12.3945 124.527 13.5414C124.227 14.6883 124.395 15.9072 124.993 16.9307L151.69 63.171C152.277 64.2006 153.249 64.9552 154.392 65.2692C155.535 65.5832 156.756 65.4308 157.787 64.8456L204.112 38.0998C205.135 37.499 205.879 36.5175 206.181 35.3699C206.483 34.2222 206.318 33.0017 205.722 31.9753L179.025 -14.265C178.434 -15.2939 177.46 -16.047 176.315 -16.3595C175.17 -16.672 173.948 -16.5185 172.916 -15.9327ZM165.814 49.9187L157.803 54.5434L142.915 28.7565L150.938 24.1248L165.826 49.9117L165.814 49.9187ZM144.888 22.9236C143.97 23.4564 142.915 23.7051 141.857 23.6382C140.798 23.5712 139.783 23.1916 138.94 22.5473C138.097 21.9031 137.464 21.0233 137.121 20.0192C136.778 19.0151 136.741 17.9319 137.015 16.9067C137.288 15.8816 137.859 14.9605 138.656 14.2602C139.453 13.5599 140.44 13.1118 141.492 12.9726C142.544 12.8334 143.613 13.0095 144.565 13.4784C145.516 13.9473 146.308 14.6881 146.838 15.6069C147.548 16.8386 147.74 18.3016 147.372 19.6747C147.004 21.0477 146.106 22.2187 144.876 22.9306L144.888 22.9236ZM195.832 32.5878L187.838 37.2031L180.597 24.663C178.87 21.6713 176.588 17.8586 172.486 20.2269C168.312 22.6371 169.555 26.2636 171.496 29.6267L178.865 42.389L170.846 47.0183L155.956 21.2274L163.627 16.7985L165.66 20.3191L165.777 20.2515C165.79 18.4919 166.279 16.7686 167.192 15.2648C168.106 13.7609 169.41 12.5327 170.966 11.7108C179.069 7.03246 183.663 11.5021 187.675 18.4505L195.832 32.5878Z" fill="#068585" fill-opacity="0.1"/>
<path d="M15.6375 38.053L16.9975 42.773L22.2775 41.293V63.453H27.7975V35.453H22.9975L15.6375 38.053ZM38.9863 45.653L39.3463 40.613H50.1063V35.453H34.2263L33.1063 51.013H41.5863C44.2663 51.013 45.9063 52.533 45.9063 54.813C45.9063 57.173 44.2663 58.613 41.4263 58.613C38.7463 58.613 37.0663 57.493 36.3863 55.253L31.6663 58.013C33.2263 61.973 36.9063 64.013 41.4263 64.013C44.2263 64.013 46.5863 63.213 48.5063 61.573C50.4663 59.933 51.4263 57.693 51.4263 54.813C51.4263 51.933 50.5063 49.693 48.6663 48.093C46.8263 46.453 44.5463 45.653 41.8663 45.653H38.9863ZM64.7116 64.013C68.2316 64.013 70.9916 62.693 72.9516 60.053C74.9116 57.373 75.9116 53.853 75.9116 49.453C75.9116 45.053 74.9116 41.533 72.9516 38.893C70.9916 36.213 68.2316 34.893 64.7116 34.893C61.2316 34.893 58.4716 36.213 56.4716 38.893C54.5116 41.533 53.5116 45.053 53.5116 49.453C53.5116 53.853 54.5116 57.373 56.4716 60.053C58.4716 62.693 61.2316 64.013 64.7116 64.013ZM70.4316 49.453C70.4316 55.373 68.4316 58.613 64.7116 58.613C60.9916 58.613 59.0316 55.413 59.0316 49.453C59.0316 43.493 60.9916 40.253 64.7116 40.253C68.4316 40.253 70.4316 43.493 70.4316 49.453ZM101.627 35.453L93.6269 48.693L85.5869 35.453H79.9069V63.453H85.4269V45.333L93.3069 58.293H93.9469L101.827 45.293V63.453H107.307V35.453H101.627ZM123.444 47.013V40.453H118.604V47.013H112.044V51.853H118.604V58.453H123.444V51.853H130.044V47.013H123.444Z" fill="url(#paint0_linear)"/>
<path d="M20.6802 78.164H19.1922V89.364H25.5122V87.956H20.6802V78.164ZM27.5647 79.908C28.0767 79.908 28.4927 79.492 28.4927 78.98C28.4927 78.468 28.0767 78.036 27.5647 78.036C27.0367 78.036 26.6207 78.468 26.6207 78.98C26.6207 79.492 27.0367 79.908 27.5647 79.908ZM28.2527 89.364V81.364H26.8607V89.364H28.2527ZM34.3603 81.156C33.1923 81.156 32.3283 81.604 31.7683 82.516V81.364H30.3763V89.364H31.7683V85.124C31.7683 83.332 32.6963 82.484 34.0883 82.484C35.3203 82.484 36.0723 83.236 36.0723 84.532V89.364H37.4643V84.452C37.4643 82.42 36.2323 81.156 34.3603 81.156ZM42.2236 85.236L46.0476 81.364H44.2556L40.7996 84.9V78.164H39.4076V89.364H40.7996V85.572L44.4476 89.364H46.1756L42.2236 85.236ZM54.4157 86.004C54.4477 85.796 54.4637 85.588 54.4637 85.38C54.4637 84.212 54.0957 83.22 53.3437 82.404C52.6077 81.572 51.6477 81.156 50.4797 81.156C49.2477 81.156 48.2397 81.556 47.4557 82.356C46.6717 83.156 46.2877 84.164 46.2877 85.364C46.2877 86.58 46.6877 87.588 47.4717 88.388C48.2717 89.172 49.3117 89.572 50.5757 89.572C52.1437 89.572 53.3117 88.964 54.0957 87.764L52.9117 87.092C52.4317 87.876 51.6637 88.26 50.6077 88.26C49.0877 88.26 47.9837 87.428 47.7117 86.004H54.4157ZM50.4797 82.468C51.7597 82.468 52.8157 83.268 53.0557 84.788H47.7117C47.9517 83.38 48.9917 82.468 50.4797 82.468ZM62.6722 82.74C61.9842 81.684 60.9762 81.156 59.6482 81.156C58.5282 81.156 57.5682 81.572 56.7842 82.388C56.0002 83.204 55.6002 84.196 55.6002 85.364C55.6002 86.532 56.0002 87.54 56.7842 88.356C57.5682 89.172 58.5282 89.572 59.6482 89.572C60.9762 89.572 61.9842 89.044 62.6722 87.988V89.364H64.0642V78.164H62.6722V82.74ZM59.8242 88.228C59.0242 88.228 58.3522 87.956 57.8082 87.412C57.2642 86.852 56.9922 86.18 56.9922 85.364C56.9922 84.548 57.2642 83.876 57.8082 83.332C58.3522 82.772 59.0242 82.5 59.8242 82.5C60.6402 82.5 61.3122 82.772 61.8562 83.332C62.4002 83.876 62.6722 84.548 62.6722 85.364C62.6722 86.18 62.4002 86.852 61.8562 87.412C61.3122 87.956 60.6402 88.228 59.8242 88.228ZM66.8772 79.908C67.3892 79.908 67.8052 79.492 67.8052 78.98C67.8052 78.468 67.3892 78.036 66.8772 78.036C66.3492 78.036 65.9332 78.468 65.9332 78.98C65.9332 79.492 66.3492 79.908 66.8772 79.908ZM67.5652 89.364V81.364H66.1732V89.364H67.5652ZM73.6728 81.156C72.5048 81.156 71.6408 81.604 71.0808 82.516V81.364H69.6888V89.364H71.0808V85.124C71.0808 83.332 72.0088 82.484 73.4008 82.484C74.6328 82.484 75.3848 83.236 75.3848 84.532V89.364H76.7768V84.452C76.7768 82.42 75.5448 81.156 73.6728 81.156ZM82.8641 89.364H84.3521V78.164H82.8641V89.364ZM95.2507 81.156C94.1307 81.156 93.2987 81.604 92.7387 82.516C92.2427 81.604 91.4587 81.156 90.3867 81.156C89.3467 81.156 88.5467 81.588 88.0027 82.436V81.364H86.6107V89.364H88.0027V84.916C88.0027 83.3 88.8827 82.484 90.0507 82.484C91.0907 82.484 91.7467 83.204 91.7467 84.436V89.364H93.1387V84.916C93.1387 83.268 93.9067 82.484 95.1067 82.484C96.1787 82.484 96.8667 83.204 96.8667 84.436V89.364H98.2587V84.388C98.2587 82.404 97.0427 81.156 95.2507 81.156ZM104.605 81.156C103.277 81.156 102.269 81.684 101.581 82.74V81.364H100.189V92.564H101.581V87.988C102.269 89.044 103.277 89.572 104.605 89.572C105.725 89.572 106.685 89.172 107.469 88.356C108.253 87.54 108.653 86.532 108.653 85.364C108.653 84.196 108.253 83.204 107.469 82.388C106.685 81.572 105.725 81.156 104.605 81.156ZM104.429 88.228C103.613 88.228 102.941 87.956 102.397 87.412C101.853 86.852 101.581 86.18 101.581 85.364C101.581 84.548 101.853 83.876 102.397 83.332C102.941 82.772 103.613 82.5 104.429 82.5C105.229 82.5 105.901 82.772 106.445 83.332C106.989 83.876 107.261 84.548 107.261 85.364C107.261 86.18 106.989 86.852 106.445 87.412C105.901 87.956 105.229 88.228 104.429 88.228ZM111.706 81.364H110.314V89.364H111.706V85.124C111.706 84.244 111.946 83.62 112.442 83.22C112.938 82.82 113.514 82.644 114.202 82.676V81.22C113.002 81.22 112.17 81.716 111.706 82.708V81.364ZM122.806 86.004C122.838 85.796 122.854 85.588 122.854 85.38C122.854 84.212 122.486 83.22 121.734 82.404C120.998 81.572 120.038 81.156 118.87 81.156C117.638 81.156 116.63 81.556 115.846 82.356C115.062 83.156 114.678 84.164 114.678 85.364C114.678 86.58 115.078 87.588 115.862 88.388C116.662 89.172 117.702 89.572 118.966 89.572C120.534 89.572 121.702 88.964 122.486 87.764L121.302 87.092C120.822 87.876 120.054 88.26 118.998 88.26C117.478 88.26 116.374 87.428 116.102 86.004H122.806ZM118.87 82.468C120.15 82.468 121.206 83.268 121.446 84.788H116.102C116.342 83.38 117.382 82.468 118.87 82.468ZM125.342 83.524C125.342 82.836 125.982 82.452 126.766 82.452C127.614 82.452 128.19 82.788 128.478 83.476L129.646 82.82C129.134 81.78 128.062 81.156 126.766 81.156C125.95 81.156 125.278 81.38 124.734 81.828C124.206 82.276 123.934 82.852 123.934 83.54C123.934 85.236 125.566 85.652 126.83 85.988C127.71 86.196 128.414 86.548 128.414 87.172C128.414 87.924 127.742 88.26 126.83 88.26C125.854 88.26 125.102 87.78 124.846 87.012L123.646 87.7C124.11 88.836 125.278 89.572 126.83 89.572C127.71 89.572 128.414 89.348 128.974 88.916C129.534 88.484 129.822 87.892 129.822 87.172C129.838 85.46 128.174 84.996 126.926 84.724C126.046 84.484 125.342 84.148 125.342 83.524ZM132.17 83.524C132.17 82.836 132.81 82.452 133.594 82.452C134.442 82.452 135.018 82.788 135.306 83.476L136.474 82.82C135.962 81.78 134.89 81.156 133.594 81.156C132.778 81.156 132.106 81.38 131.562 81.828C131.034 82.276 130.762 82.852 130.762 83.54C130.762 85.236 132.394 85.652 133.658 85.988C134.538 86.196 135.242 86.548 135.242 87.172C135.242 87.924 134.57 88.26 133.658 88.26C132.682 88.26 131.93 87.78 131.674 87.012L130.474 87.7C130.938 88.836 132.106 89.572 133.658 89.572C134.538 89.572 135.242 89.348 135.802 88.916C136.362 88.484 136.65 87.892 136.65 87.172C136.666 85.46 135.002 84.996 133.754 84.724C132.874 84.484 132.17 84.148 132.17 83.524ZM138.924 79.908C139.436 79.908 139.852 79.492 139.852 78.98C139.852 78.468 139.436 78.036 138.924 78.036C138.396 78.036 137.98 78.468 137.98 78.98C137.98 79.492 138.396 79.908 138.924 79.908ZM139.612 89.364V81.364H138.22V89.364H139.612ZM148.488 88.356C149.304 87.54 149.72 86.548 149.72 85.364C149.72 84.18 149.304 83.188 148.488 82.372C147.672 81.556 146.664 81.156 145.496 81.156C144.328 81.156 143.32 81.556 142.504 82.372C141.688 83.188 141.288 84.18 141.288 85.364C141.288 86.548 141.688 87.54 142.504 88.356C143.32 89.172 144.328 89.572 145.496 89.572C146.664 89.572 147.672 89.172 148.488 88.356ZM145.496 88.212C144.712 88.212 144.04 87.94 143.496 87.396C142.952 86.852 142.68 86.18 142.68 85.364C142.68 84.548 142.952 83.876 143.496 83.332C144.04 82.788 144.712 82.516 145.496 82.516C146.296 82.516 146.968 82.788 147.512 83.332C148.056 83.876 148.328 84.548 148.328 85.364C148.328 86.18 148.056 86.852 147.512 87.396C146.968 87.94 146.296 88.212 145.496 88.212ZM155.345 81.156C154.177 81.156 153.313 81.604 152.753 82.516V81.364H151.361V89.364H152.753V85.124C152.753 83.332 153.681 82.484 155.073 82.484C156.305 82.484 157.057 83.236 157.057 84.532V89.364H158.449V84.452C158.449 82.42 157.217 81.156 155.345 81.156ZM161.592 83.524C161.592 82.836 162.232 82.452 163.016 82.452C163.864 82.452 164.44 82.788 164.728 83.476L165.896 82.82C165.384 81.78 164.312 81.156 163.016 81.156C162.2 81.156 161.528 81.38 160.984 81.828C160.456 82.276 160.184 82.852 160.184 83.54C160.184 85.236 161.816 85.652 163.08 85.988C163.96 86.196 164.664 86.548 164.664 87.172C164.664 87.924 163.992 88.26 163.08 88.26C162.104 88.26 161.352 87.78 161.096 87.012L159.896 87.7C160.36 88.836 161.528 89.572 163.08 89.572C163.96 89.572 164.664 89.348 165.224 88.916C165.784 88.484 166.072 87.892 166.072 87.172C166.088 85.46 164.424 84.996 163.176 84.724C162.296 84.484 161.592 84.148 161.592 83.524Z" fill="white"/>
</g>
<defs>
<linearGradient id="paint0_linear" x1="11.5149" y1="52.453" x2="132.198" y2="52.453" gradientUnits="userSpaceOnUse">
<stop stop-color="#1BD18E"/>
<stop offset="1" stop-color="#01AEAE"/>
</linearGradient>
<clipPath id="clip0">
<rect width="185" height="111" rx="20" fill="white"/>
</clipPath>
</defs>
</svg>
