<svg xmlns="http://www.w3.org/2000/svg" xmlns:xlink="http://www.w3.org/1999/xlink" width="65.624" height="65.624" viewBox="0 0 65.624 65.624"><defs><linearGradient id="linear-gradient" x1="-8.704" y1="-3.54" x2="4.528" y2="0.264" gradientUnits="objectBoundingBox"><stop offset="0" stop-color="#11998e"></stop><stop offset="1" stop-color="#38ef7d"></stop></linearGradient></defs><path id="Icon_awesome-linkedin" data-name="Icon awesome-linkedin" d="M60.937,2.25H4.673A4.708,4.708,0,0,0,0,6.981V63.143a4.708,4.708,0,0,0,4.673,4.731H60.937a4.72,4.72,0,0,0,4.687-4.731V6.981A4.72,4.72,0,0,0,60.937,2.25ZM19.834,58.5H10.107V27.181h9.741V58.5ZM14.97,22.9a5.64,5.64,0,1,1,5.64-5.64A5.642,5.642,0,0,1,14.97,22.9ZM56.293,58.5H46.567V43.265c0-3.633-.073-8.306-5.054-8.306-5.068,0-5.845,3.955-5.845,8.042V58.5H25.942V27.181h9.331v4.277H35.4A10.245,10.245,0,0,1,44.618,26.4c9.844,0,11.675,6.489,11.675,14.927Z" transform="translate(0 -2.25)" fill="url(#linear-gradient)"></path></svg>