<svg xmlns="http://www.w3.org/2000/svg" xmlns:xlink="http://www.w3.org/1999/xlink" id="unlock" width="55.747" height="70.971" viewBox="0 0 55.747 70.971"><defs><linearGradient id="linear-gradient" x1="-8.704" y1="-3.54" x2="4.528" y2="0.264" gradientUnits="objectBoundingBox"><stop offset="0" stop-color="#11998e"></stop><stop offset="1" stop-color="#38ef7d"></stop></linearGradient></defs><g id="Group_239" data-name="Group 239" transform="translate(0 0)"><path id="Path_95" data-name="Path 95" d="M104.479,25.359H61.4V22.825a17.738,17.738,0,0,1,34.186-6.654,2.534,2.534,0,0,0,4.7-1.9,22.806,22.806,0,0,0-43.952,8.555v2.534H53.8a2.534,2.534,0,0,0-2.534,2.534V68.436A2.534,2.534,0,0,0,53.8,70.97h50.679a2.534,2.534,0,0,0,2.534-2.534V27.893A2.534,2.534,0,0,0,104.479,25.359ZM86.307,48.133a7.6,7.6,0,0,1-4.633,4.633V58.3a2.534,2.534,0,0,1-5.068,0V52.766a7.6,7.6,0,1,1,9.7-4.633Z" transform="translate(-51.266 0.001)" fill="url(#linear-gradient)"></path></g></svg>