<svg width="28" height="28" viewBox="0 0 28 28" fill="none" xmlns="http://www.w3.org/2000/svg">
<path d="M14.0119 0.932108C6.5615 0.932108 0.52832 6.78224 0.52832 13.9904C0.52832 21.1987 6.5615 27.0488 14.0119 27.0488C21.4757 27.0488 27.5224 21.1987 27.5224 13.9904C27.5224 6.78224 21.4757 0.932108 14.0119 0.932108ZM14.0254 24.4371C8.05967 24.4371 3.22773 19.7622 3.22773 13.9904C3.22773 8.21866 8.05967 3.54378 14.0254 3.54378C19.9911 3.54378 24.823 8.21866 24.823 13.9904C24.823 19.7622 19.9911 24.4371 14.0254 24.4371ZM14.7002 7.46128H12.6757V15.2963L19.7616 19.4097L20.7739 17.8035L14.7002 14.3169V7.46128Z" fill="url(#paint0_linear)"/>
<defs>
<linearGradient id="paint0_linear" x1="-0.32133" y1="13.9904" x2="27.5224" y2="13.9904" gradientUnits="userSpaceOnUse">
<stop stop-color="#1BD18E"/>
<stop offset="1" stop-color="#01AEAE"/>
</linearGradient>
</defs>
</svg>
