<svg xmlns="http://www.w3.org/2000/svg" width="24.343" height="24.343" viewBox="0 0 24.343 24.343"><g id="Icon_feather-instagram" data-name="Icon feather-instagram" transform="translate(1.001 1)"><path id="Path_97" data-name="Path 97" d="M8.586,3H19.757a5.586,5.586,0,0,1,5.586,5.586V19.757a5.586,5.586,0,0,1-5.586,5.586H8.586A5.586,5.586,0,0,1,3,19.757V8.586A5.586,5.586,0,0,1,8.586,3Z" transform="translate(-3.001 -3)" fill="none" stroke="#2fdd80" stroke-width="2"></path><path id="Path_98" data-name="Path 98" d="M21.977,16.187a4.983,4.983,0,1,1-4.2-4.2,4.983,4.983,0,0,1,4.2,4.2Z" transform="translate(-5.832 -5.791)" fill="none" stroke="#2fdd80" stroke-width="2"></path><path id="Path_99" data-name="Path 99" d="M26.25,9.75h0" transform="translate(-8.935 -4.723)" fill="none" stroke="#2fdd80" stroke-width="2"></path></g></svg>