<svg xmlns="http://www.w3.org/2000/svg" width="24.279" height="19.719" viewBox="0 0 24.279 19.719"><path id="Icon_awesome-twitter" data-name="Icon awesome-twitter" d="M21.783,8.3c.015.216.015.431.015.647A14.06,14.06,0,0,1,7.641,23.1,14.061,14.061,0,0,1,0,20.866a10.293,10.293,0,0,0,1.2.062A9.965,9.965,0,0,0,7.379,18.8a4.985,4.985,0,0,1-4.652-3.451,6.275,6.275,0,0,0,.94.077,5.263,5.263,0,0,0,1.309-.169,4.977,4.977,0,0,1-3.99-4.883v-.062a5.011,5.011,0,0,0,2.249.632A4.983,4.983,0,0,1,1.695,4.29,14.144,14.144,0,0,0,11.954,9.5a5.617,5.617,0,0,1-.123-1.14,4.981,4.981,0,0,1,8.612-3.4A9.8,9.8,0,0,0,23.6,3.75a4.962,4.962,0,0,1-2.188,2.742,9.975,9.975,0,0,0,2.865-.77A10.7,10.7,0,0,1,21.783,8.3Z" transform="translate(0 -3.381)" fill="#2cd482"></path></svg>