<svg width="40" height="40" viewBox="0 0 40 40" fill="none" xmlns="http://www.w3.org/2000/svg">
<path d="M20 40C31.0457 40 40 31.0457 40 20C40 8.9543 31.0457 0 20 0C8.9543 0 0 8.9543 0 20C0 31.0457 8.9543 40 20 40Z" fill="#02131B"/>
<g clip-path="url(#clip0)">
<path d="M13.0026 18.7353C12.3167 18.0497 11.2008 18.0495 10.5153 18.7355C10.183 19.0677 10 19.5093 10 19.9792C10 20.4491 10.183 20.8906 10.5153 21.2227L11.9845 22.6919C12.4394 21.5904 13.2599 20.6542 14.3339 20.0666L13.0026 18.7353Z" fill="url(#paint0_linear)"/>
<path d="M15.1762 20.9554C13.7522 21.5994 12.7567 23.0284 12.7567 24.6902V28.2079C12.7567 28.5318 13.0192 28.7942 13.343 28.7942H14.8982L18.9566 24.7358L15.1762 20.9554Z" fill="url(#paint1_linear)"/>
<path d="M24.3991 20.9515L16.5563 28.7942H26.2412C26.565 28.7942 26.8274 28.5318 26.8274 28.2079V24.6902C26.8274 23.0249 25.8278 21.5935 24.3991 20.9515Z" fill="url(#paint2_linear)"/>
<path d="M27.4137 11.2058H26.2412C25.0863 11.2058 24.0883 11.8787 23.6108 12.8514C22.6489 11.8403 21.2945 11.2058 19.7921 11.2058C16.8827 11.2058 14.5156 13.5729 14.5156 16.4823C14.5156 16.9134 14.5733 17.3302 14.6712 17.7315C14.6783 17.7853 14.6903 17.8375 14.711 17.8857C15.3278 20.1151 17.3692 21.7589 19.7921 21.7589C22.2148 21.7589 24.2561 20.1154 24.8731 17.8864C24.8941 17.8376 24.9063 17.7848 24.9134 17.7303C25.0111 17.3294 25.0686 16.9129 25.0686 16.4823C25.0686 15.865 24.9565 15.2746 24.7608 14.7235H25.0686C26.6851 14.7235 28 13.4086 28 11.7921C28 11.4682 27.7376 11.2058 27.4137 11.2058ZM23.8492 17.0686H21.7464H17.8378H15.735C15.7073 16.8766 15.6881 16.6819 15.6881 16.4823C15.6881 16.2828 15.7073 16.0881 15.735 15.8961H17.2515V16.4823C17.2515 16.8062 17.5139 17.0686 17.8378 17.0686C18.1617 17.0686 18.4241 16.8062 18.4241 16.4823V15.8961H21.16V16.4823C21.16 16.8062 21.4224 17.0686 21.7463 17.0686C22.0702 17.0686 22.3326 16.8062 22.3326 16.4823V15.8961H23.8491C23.8768 16.0881 23.896 16.2828 23.896 16.4823C23.896 16.6819 23.8769 16.8766 23.8492 17.0686Z" fill="url(#paint3_linear)"/>
</g>
<defs>
<linearGradient id="paint0_linear" x1="9.7573" y1="19.1018" x2="14.4147" y2="21.9706" gradientUnits="userSpaceOnUse">
<stop stop-color="#38EF7D"/>
<stop offset="1" stop-color="#11998E"/>
</linearGradient>
<linearGradient id="paint1_linear" x1="12.4096" y1="22.4997" x2="19.7468" y2="26.1871" gradientUnits="userSpaceOnUse">
<stop stop-color="#38EF7D"/>
<stop offset="1" stop-color="#11998E"/>
</linearGradient>
<linearGradient id="paint2_linear" x1="15.9812" y1="22.4965" x2="24.977" y2="29.9826" gradientUnits="userSpaceOnUse">
<stop stop-color="#38EF7D"/>
<stop offset="1" stop-color="#11998E"/>
</linearGradient>
<linearGradient id="paint3_linear" x1="13.7605" y1="13.2848" x2="25.8076" y2="23.0661" gradientUnits="userSpaceOnUse">
<stop stop-color="#38EF7D"/>
<stop offset="1" stop-color="#11998E"/>
</linearGradient>
<clipPath id="clip0">
<rect width="18" height="18" fill="white" transform="translate(10 11)"/>
</clipPath>
</defs>
</svg>
