<svg width="28" height="27" viewBox="0 0 28 27" fill="none" xmlns="http://www.w3.org/2000/svg">
<path d="M19.6021 7.93332C18.852 7.20406 17.9602 6.62555 16.978 6.23112C15.9959 5.83668 14.9428 5.63411 13.8794 5.63506V13.4701L8.15662 19.0068C11.3149 22.0624 16.4438 22.0624 19.6156 19.0068C20.3673 18.2794 20.9632 17.4157 21.3694 16.4652C21.7756 15.5146 21.9841 14.4959 21.9828 13.4674C21.9816 12.4388 21.7706 11.4205 21.3621 10.4709C20.9536 9.52134 20.3555 8.65901 19.6021 7.93332ZM13.8794 0.41172C6.429 0.41172 0.382324 6.26186 0.382324 13.4701C0.382324 20.6783 6.429 26.5284 13.8794 26.5284C21.3297 26.5284 27.3764 20.6783 27.3764 13.4701C27.3764 6.26186 21.3297 0.41172 13.8794 0.41172ZM13.8794 23.9167C7.91367 23.9167 3.08173 19.2418 3.08173 13.4701C3.08173 7.69827 7.91367 3.02339 13.8794 3.02339C19.8451 3.02339 24.677 7.69827 24.677 13.4701C24.677 19.2418 19.8451 23.9167 13.8794 23.9167Z" fill="url(#paint0_linear)"/>
<defs>
<linearGradient id="paint0_linear" x1="-0.467326" y1="13.4701" x2="27.3764" y2="13.4701" gradientUnits="userSpaceOnUse">
<stop stop-color="#1BD18E"/>
<stop offset="1" stop-color="#01AEAE"/>
</linearGradient>
</defs>
</svg>
