<svg xmlns="http://www.w3.org/2000/svg" xmlns:xlink="http://www.w3.org/1999/xlink" width="62" height="63" viewBox="0 0 62 63"><defs><linearGradient id="linear-gradient" x1="-0.056" y1="0.197" x2="1" y2="0.868" gradientUnits="objectBoundingBox"><stop offset="0" stop-color="#38ef7d"></stop><stop offset="1" stop-color="#11998e"></stop></linearGradient></defs><g id="Group_321" data-name="Group 321" transform="translate(-227 -1983)"><ellipse id="Ellipse_26" data-name="Ellipse 26" cx="31" cy="31.5" rx="31" ry="31.5" transform="translate(227 1983)" fill="#02131b"></ellipse><path id="man" d="M96.681,9.724a19.9,19.9,0,0,1-10.7-3.544.572.572,0,0,0-.9.473A2.605,2.605,0,0,1,84,8.734a2.25,2.25,0,0,1-1.421.28.573.573,0,0,0-.644.568v5.443a7.651,7.651,0,0,0,15.3,0V10.3A.573.573,0,0,0,96.681,9.724Zm-6.106,24.6H88.591a.572.572,0,0,1-.568-.643l.658-5.268a.569.569,0,0,1,.73-.477.618.618,0,0,0,.342,0,.57.57,0,0,1,.731.477l.658,5.268A.572.572,0,0,1,90.575,34.32Zm-3.014-7.952-.866,1a.286.286,0,0,1-.5-.126l-.726-3.3a.1.1,0,0,1,.167-.086l1.918,2.131a.286.286,0,0,1,0,.379Zm4.91,1-.866-1a.286.286,0,0,1,0-.379l1.918-2.131a.1.1,0,0,1,.167.086l-.726,3.3A.286.286,0,0,1,92.471,27.366Zm-5.619,6.453a.572.572,0,0,1-.568.5H78.572A.572.572,0,0,1,78,33.748V30.369a5.9,5.9,0,0,1,5.9-5.9,2.408,2.408,0,0,0,.409-.035.1.1,0,0,1,.112.074l1.024,4.648a.572.572,0,0,0,.99.252l.511-.588a.286.286,0,0,1,.5.223Zm14.314-3.45v3.379a.572.572,0,0,1-.572.572H92.881a.572.572,0,0,1-.568-.5l-.6-4.78a.286.286,0,0,1,.5-.223l.511.588a.572.572,0,0,0,.99-.252L94.741,24.5a.1.1,0,0,1,.112-.074,2.416,2.416,0,0,0,.409.035A5.9,5.9,0,0,1,101.166,30.369ZM99.021,6.259c0,7.267,0,6.813,0,6.89a.321.321,0,0,1-.641-.021V10.3A1.717,1.717,0,0,0,96.72,8.581,18.756,18.756,0,0,1,86.629,5.24a1.717,1.717,0,0,0-2.694,1.407,1.484,1.484,0,0,1-.527,1.106,1.1,1.1,0,0,1-.689.126,1.717,1.717,0,0,0-1.93,1.7v3.546a.321.321,0,0,1-.641.021c0-.076,0,.391,0-7.071a2.507,2.507,0,0,1,2.114-2.472A6.226,6.226,0,0,1,87.928,0h4.834A6.259,6.259,0,0,1,99.021,6.259ZM91.517,23.6a.286.286,0,0,1,.277.47l-1.785,1.983a.572.572,0,0,1-.851,0l-1.785-1.983a.286.286,0,0,1,.277-.47A8.845,8.845,0,0,0,91.517,23.6Z" transform="translate(168.026 1997.436)" fill="url(#linear-gradient)"></path></g></svg>