<svg width="31" height="27" viewBox="0 0 31 27" fill="none" xmlns="http://www.w3.org/2000/svg">
<path d="M13.2045 19.7774L18.5763 16.8001C19.4806 16.3038 19.4806 15.0372 18.5763 14.5279L13.2045 11.5506C12.3002 11.0544 11.18 11.6943 11.18 12.6867V18.6282C11.18 19.6337 12.3002 20.2736 13.2045 19.7774ZM27.3764 5.21731H17.1322L21.1003 1.37816C21.3702 1.117 21.3702 0.712187 21.1003 0.45102C20.8303 0.189853 20.4119 0.189853 20.142 0.45102L15.2291 5.20426L10.3161 0.45102C10.0462 0.189853 9.6278 0.189853 9.35786 0.45102C9.08792 0.712187 9.08792 1.117 9.35786 1.37816L13.326 5.21731H3.08173C2.3658 5.21731 1.6792 5.49247 1.17296 5.98225C0.666725 6.47204 0.382324 7.13632 0.382324 7.82898V23.499C0.382324 24.9354 1.59706 26.1107 3.08173 26.1107H27.3764C28.8611 26.1107 30.0758 24.9354 30.0758 23.499V7.82898C30.0758 7.13632 29.7914 6.47204 29.2852 5.98225C28.7789 5.49247 28.0923 5.21731 27.3764 5.21731ZM26.0267 23.499H4.43144C3.6891 23.499 3.08173 22.9114 3.08173 22.1932V9.13482C3.08173 8.41661 3.6891 7.82898 4.43144 7.82898H26.0267C26.769 7.82898 27.3764 8.41661 27.3764 9.13482V22.1932C27.3764 22.9114 26.769 23.499 26.0267 23.499Z" fill="url(#paint0_linear)"/>
<defs>
<linearGradient id="paint0_linear" x1="-0.552291" y1="13.1829" x2="30.0758" y2="13.1829" gradientUnits="userSpaceOnUse">
<stop stop-color="#1BD18E"/>
<stop offset="1" stop-color="#01AEAE"/>
</linearGradient>
</defs>
</svg>
