<svg width="40" height="40" viewBox="0 0 40 40" fill="none" xmlns="http://www.w3.org/2000/svg">
<path d="M20 40C31.0457 40 40 31.0457 40 20C40 8.9543 31.0457 0 20 0C8.9543 0 0 8.9543 0 20C0 31.0457 8.9543 40 20 40Z" fill="#02131B"/>
<g clip-path="url(#clip0)">
<path d="M14.1992 16.8555V14.7461C14.1992 14.6613 14.2114 14.5797 14.2242 14.4985C13.5832 14.8607 13.1445 15.5406 13.1445 16.3281C13.1445 17.176 13.6499 17.9036 14.3728 18.2385C14.2635 17.7944 14.1992 17.3328 14.1992 16.8555Z" fill="url(#paint0_linear)"/>
<path d="M20 22.6563C19.1404 22.6563 18.3278 22.4607 17.5933 22.1235C17.7099 22.3902 17.8597 22.6434 18.0642 22.8643C19.0416 23.9205 20.8502 23.955 21.8653 22.938C22.1042 22.6988 22.2882 22.4201 22.4184 22.1188C21.681 22.4593 20.8641 22.6563 20 22.6563Z" fill="url(#paint1_linear)"/>
<path d="M25.43 21.9456C25.396 21.9337 25.361 21.9255 25.3249 21.9209L23.6305 21.7006C23.5034 22.4474 23.1577 23.1371 22.6115 23.6837C21.9142 24.3814 20.9867 24.7656 20 24.7656C18.9747 24.7656 17.9869 24.3336 17.2902 23.5807C16.7963 23.0468 16.4915 22.3968 16.3731 21.6999L14.6756 21.9204C14.6396 21.925 14.6045 21.9332 14.57 21.9451C13.0863 22.4616 12.0898 23.8644 12.0898 25.4356V27.4727C12.0898 27.7641 12.3257 28 12.6172 28H27.3828C27.6743 28 27.9102 27.7641 27.9102 27.4727V25.4346C27.9102 23.8639 26.9137 22.4616 25.43 21.9456ZM25.2734 25.8203H23.1641C22.8726 25.8203 22.6367 25.5845 22.6367 25.293C22.6367 25.0015 22.8726 24.7656 23.1641 24.7656H25.2734C25.5649 24.7656 25.8008 25.0015 25.8008 25.293C25.8008 25.5845 25.5649 25.8203 25.2734 25.8203Z" fill="url(#paint2_linear)"/>
<path d="M16.6346 15.2734L17.0161 16.0366C17.1058 16.2164 17.2865 16.3281 17.4879 16.3281H22.5121C22.7135 16.3281 22.8942 16.2164 22.9838 16.0366L23.3654 15.2734H16.6346Z" fill="url(#paint3_linear)"/>
<path d="M21.0547 10H18.9453C16.9101 10 15.2539 11.6562 15.2539 13.6914V14.2188H24.7461V13.6914C24.7461 11.6562 23.0899 10 21.0547 10ZM20 13.1641C19.7088 13.1641 19.4727 12.928 19.4727 12.6367C19.4727 12.3454 19.7088 12.1094 20 12.1094C20.2912 12.1094 20.5273 12.3454 20.5273 12.6367C20.5273 12.928 20.2912 13.1641 20 13.1641Z" fill="url(#paint4_linear)"/>
<path d="M24.5447 15.2734L23.9273 16.5084C23.6574 17.0476 23.1151 17.3828 22.5121 17.3828H17.4879C16.8849 17.3828 16.3426 17.0476 16.0727 16.5084C16.0727 16.5084 15.8158 15.9944 15.6334 15.6296C15.533 15.429 15.4553 15.2734 15.4553 15.2734H15.2539V16.8555C15.2539 19.4726 17.3829 21.6016 20 21.6016C22.6453 21.6016 24.7461 19.4374 24.7461 16.8555V15.2734H24.5447Z" fill="url(#paint5_linear)"/>
<path d="M25.7666 14.4213C25.7887 14.5263 25.8007 14.6347 25.8007 14.7461V16.8555C25.8008 17.3545 25.7307 17.8364 25.6116 18.2988C26.4132 17.9996 26.9883 17.2328 26.9883 16.3281C26.9883 15.4829 26.4859 14.7576 25.7666 14.4213Z" fill="url(#paint6_linear)"/>
</g>
<defs>
<linearGradient id="paint0_linear" x1="13.0757" y1="15.2352" x2="14.8205" y2="15.5993" gradientUnits="userSpaceOnUse">
<stop stop-color="#38EF7D"/>
<stop offset="1" stop-color="#11998E"/>
</linearGradient>
<linearGradient id="paint1_linear" x1="17.3231" y1="22.4262" x2="18.7946" y2="25.3175" gradientUnits="userSpaceOnUse">
<stop stop-color="#38EF7D"/>
<stop offset="1" stop-color="#11998E"/>
</linearGradient>
<linearGradient id="paint2_linear" x1="11.2039" y1="22.9411" x2="17.8174" y2="33.4937" gradientUnits="userSpaceOnUse">
<stop stop-color="#38EF7D"/>
<stop offset="1" stop-color="#11998E"/>
</linearGradient>
<linearGradient id="paint3_linear" x1="16.2576" y1="15.4812" x2="16.8296" y2="17.8006" gradientUnits="userSpaceOnUse">
<stop stop-color="#38EF7D"/>
<stop offset="1" stop-color="#11998E"/>
</linearGradient>
<linearGradient id="paint4_linear" x1="14.7223" y1="10.8311" x2="19.3448" y2="17.4398" gradientUnits="userSpaceOnUse">
<stop stop-color="#38EF7D"/>
<stop offset="1" stop-color="#11998E"/>
</linearGradient>
<linearGradient id="paint5_linear" x1="14.7223" y1="16.5201" x2="22.0953" y2="23.5474" gradientUnits="userSpaceOnUse">
<stop stop-color="#38EF7D"/>
<stop offset="1" stop-color="#11998E"/>
</linearGradient>
<linearGradient id="paint6_linear" x1="25.5345" y1="15.1852" x2="27.4765" y2="15.6233" gradientUnits="userSpaceOnUse">
<stop stop-color="#38EF7D"/>
<stop offset="1" stop-color="#11998E"/>
</linearGradient>
<clipPath id="clip0">
<rect width="18" height="18" fill="white" transform="translate(11 10)"/>
</clipPath>
</defs>
</svg>
