<svg width="40" height="40" viewBox="0 0 40 40" fill="none" xmlns="http://www.w3.org/2000/svg">
<path d="M20 40C31.0457 40 40 31.0457 40 20C40 8.9543 31.0457 0 20 0C8.9543 0 0 8.9543 0 20C0 31.0457 8.9543 40 20 40Z" fill="#02131B"/>
<path d="M27.384 24.3808C27.1934 24.567 26.9528 24.5124 26.8397 24.3536C26.1022 23.3178 24.8543 22.5904 23.3867 22.5904C22.8229 22.5904 22.7563 22.1247 23.0146 21.9467C24.3623 21.0182 25.2444 19.4857 25.2444 17.7554C25.2444 17.7443 25.2447 15.4486 25.244 15.4375C25.2354 15.0036 24.938 14.618 24.5008 14.4963C23.8136 14.3066 23.2312 13.811 22.9552 13.1313C22.6624 12.4101 21.6738 12.2752 21.1904 12.8933C19.7842 14.6947 17.6664 15.7449 15.3968 15.8342C14.477 15.8702 14.0756 16.984 14.7556 17.5788V17.7554C14.7556 19.4857 15.6377 21.0183 16.9855 21.9468C17.2442 22.125 17.1773 22.5904 16.6133 22.5904C15.168 22.5904 13.9092 23.3004 13.16 24.3538C13.0381 24.5253 12.7884 24.5493 12.6373 24.4017C12.0659 23.8433 12.0513 23.0457 12.532 22.4533C12.7831 22.1425 12.7499 21.7029 12.4548 21.4313C11.9078 20.9271 11.846 20.0817 12.3141 19.5067L12.8053 18.9033C12.9627 18.7104 13.0138 18.4533 12.9422 18.2163L12.625 17.165C12.4122 16.4613 12.7759 15.7208 13.4709 15.4425L13.8896 15.275C14.1825 15.1575 14.3718 14.8821 14.3718 14.5729V13.5C14.3718 11.0147 16.4335 9 18.9767 9H21.0233C23.5665 9 25.6282 11.0147 25.6282 13.5V14.5729C25.6282 14.8821 25.8175 15.1575 26.1104 15.275L26.5291 15.4425C27.2241 15.7208 27.5878 16.4613 27.375 17.165L27.0578 18.2163C26.9862 18.4533 27.0373 18.7104 27.1947 18.9033L27.6859 19.5067C28.154 20.0817 28.0922 20.9271 27.5452 21.4313C27.2501 21.7029 27.2169 22.1425 27.4684 22.4538C27.9981 23.1181 27.8675 23.908 27.384 24.3808ZM19.5266 25.5218L17.8168 24.2282C17.5561 24.031 17.1892 24.274 17.2801 24.5837L18.5058 28.7586C18.5477 28.9015 18.6815 29 18.8336 29H19.3178C19.5062 29 19.6589 28.8508 19.6589 28.6667V25.7853C19.6589 25.6822 19.61 25.5849 19.5266 25.5218ZM20.3411 25.7853V28.6667C20.3411 28.8508 20.4938 29 20.6822 29H21.1663C21.3185 29 21.4522 28.9015 21.4942 28.7586L22.7198 24.5837C22.8107 24.274 22.4438 24.031 22.1831 24.2282L20.4734 25.5217C20.39 25.5849 20.3411 25.6822 20.3411 25.7853ZM16.2723 23.5681C16.2227 23.3991 16.0473 23.2975 15.8713 23.3342C14.2993 23.6618 13.0927 25.0294 13.0927 26.6975V28.6667C13.0927 28.8508 13.2454 29 13.4338 29H17.8669L16.2723 23.5681ZM22.3387 22.8096C22.2975 22.766 22.2591 22.72 22.2238 22.6717C22.1356 22.5509 21.9733 22.5059 21.831 22.5578C20.656 22.987 19.3468 22.9882 18.1692 22.5578C18.0269 22.5058 17.8647 22.5508 17.7765 22.6716C17.7411 22.72 17.7026 22.7663 17.6613 22.81C17.5253 22.9533 17.5453 23.1796 17.7031 23.2992L19.7911 24.8787C19.9143 24.9717 20.0857 24.9717 20.2089 24.8787L22.2969 23.2992C22.4551 23.1796 22.4743 22.9529 22.3387 22.8096ZM24.1287 23.3342C23.9527 23.2975 23.7774 23.3991 23.7277 23.5682L22.2579 28.5748C22.1954 28.7878 22.359 29 22.5858 29H26.5662C26.7546 29 26.9073 28.8508 26.9073 28.6667V26.6975C26.9073 25.0309 25.7022 23.6621 24.1287 23.3342ZM24.3145 15.1375C23.4197 14.8898 22.6746 14.247 22.3212 13.3771C22.2229 13.1365 21.8941 13.0917 21.7328 13.2979C20.1999 15.2615 17.8885 16.4041 15.4241 16.5004C15.2361 16.5075 15.0894 16.6625 15.0971 16.8467C15.1043 17.0251 15.2539 17.1667 15.4378 17.1667V17.7554C15.4378 20.2133 17.4844 22.2133 20 22.2133C22.5156 22.2133 24.5622 20.2133 24.5622 17.7554V15.4583C24.5622 15.3092 24.4612 15.1783 24.3145 15.1375Z" fill="url(#paint0_linear)"/>
<defs>
<linearGradient id="paint0_linear" x1="11.104" y1="12.94" x2="29.9516" y2="22.5208" gradientUnits="userSpaceOnUse">
<stop stop-color="#38EF7D"/>
<stop offset="1" stop-color="#11998E"/>
</linearGradient>
</defs>
</svg>
