<svg width="40" height="40" viewBox="0 0 40 40" fill="none" xmlns="http://www.w3.org/2000/svg">
<path d="M20 40C31.0457 40 40 31.0457 40 20C40 8.9543 31.0457 0 20 0C8.9543 0 0 8.9543 0 20C0 31.0457 8.9543 40 20 40Z" fill="#02131B"/>
<path d="M25.3237 16.1929C24.9812 17.5025 24.1819 17.791 23.7555 17.8488C23.4928 18.374 22.9153 19.4473 22.3377 19.9866C22.1068 20.2021 21.8068 20.384 21.446 20.5272C20.9853 20.71 20.4988 20.8027 20 20.8027C19.5013 20.8027 19.0148 20.71 18.5541 20.5272C18.1934 20.3841 17.8933 20.2022 17.6624 19.9866C17.0846 19.4474 16.5072 18.374 16.2445 17.8488C15.8182 17.791 15.0189 17.5026 14.6764 16.1929C14.4932 15.4926 14.5401 14.9217 14.8159 14.4961C14.9378 14.308 15.0855 14.1799 15.2231 14.0931C15.2235 13.9533 15.2294 13.7783 15.2456 13.5792C14.9979 13.235 14.6611 12.4923 15.0782 11.2901C15.519 10.0192 16.5158 9.82296 16.9969 9.80595C17.1595 9.5036 17.4668 9.07433 18.0248 8.67968C18.6442 8.24136 19.453 8 20.3022 8C21.3471 8 22.3986 8.36777 23.3429 9.06356C24.8739 10.1916 24.7427 12.694 24.7052 13.1483C24.7608 13.5292 24.7762 13.8595 24.7769 14.093C24.9144 14.1798 25.0622 14.3079 25.1841 14.496C25.4599 14.9217 25.5068 15.4925 25.3237 16.1929ZM29.8012 25.9447V29.4968C29.8012 29.7746 29.5758 30 29.2979 30H10.7021C10.4242 30 10.1988 29.7746 10.1988 29.4968V25.9447C10.1988 24.4896 11.0719 23.2 12.423 22.6596L16.8229 20.8996C16.9495 20.8491 17.0912 20.8518 17.2157 20.9078C17.3401 20.9635 17.4366 21.0675 17.4829 21.1957L18.589 24.2537L18.8081 23.6241L18.4596 22.7723C18.3962 22.6171 18.4141 22.4404 18.5076 22.3012C18.6011 22.162 18.7577 22.0785 18.9254 22.0785H21.0747C21.2424 22.0785 21.3991 22.162 21.4925 22.3012C21.586 22.4404 21.6039 22.6171 21.5405 22.7723L21.192 23.6241L21.411 24.2537L22.5172 21.1957C22.5635 21.0675 22.66 20.9635 22.7844 20.9078C22.9089 20.8519 23.0507 20.8492 23.1772 20.8996L27.5771 22.6596C28.9282 23.2 29.8012 24.4896 29.8012 25.9447ZM27.1223 26.3309C27.1223 26.053 26.8969 25.8277 26.619 25.8277H23.2402C22.9624 25.8277 22.737 26.053 22.737 26.3309V27.9001C22.737 28.1779 22.9624 28.4033 23.2402 28.4033H26.619C26.8969 28.4033 27.1223 28.1779 27.1223 27.9001V26.3309Z" fill="url(#paint0_linear)"/>
<defs>
<linearGradient id="paint0_linear" x1="9.1011" y1="12.334" x2="31.1055" y2="24.7922" gradientUnits="userSpaceOnUse">
<stop stop-color="#38EF7D"/>
<stop offset="1" stop-color="#11998E"/>
</linearGradient>
</defs>
</svg>
